<svg xmlns="http://www.w3.org/2000/svg" xmlns:xlink="http://www.w3.org/1999/xlink" width="150" zoomAndPan="magnify" viewBox="0 0 112.5 30.000001" height="40" preserveAspectRatio="xMidYMid meet" version="1.0"><defs><g/><clipPath id="5ecde0390c"><path d="M 62.355469 4.171875 L 68 4.171875 L 68 9 L 62.355469 9 Z M 62.355469 4.171875 " clip-rule="nonzero"/></clipPath><clipPath id="7d6f35e9b6"><path d="M 62.355469 9 L 68 9 L 68 15 L 62.355469 15 Z M 62.355469 9 " clip-rule="nonzero"/></clipPath><clipPath id="241987ce39"><path d="M 62.355469 15 L 68 15 L 68 20 L 62.355469 20 Z M 62.355469 15 " clip-rule="nonzero"/></clipPath><clipPath id="7d7b38b6d3"><path d="M 62.355469 20 L 68 20 L 68 25.3125 L 62.355469 25.3125 Z M 62.355469 20 " clip-rule="nonzero"/></clipPath><clipPath id="6c029ebe5e"><path d="M 67 20 L 73 20 L 73 25.3125 L 67 25.3125 Z M 67 20 " clip-rule="nonzero"/></clipPath><clipPath id="6fc3a6c8b6"><path d="M 73 20 L 79 20 L 79 25.3125 L 73 25.3125 Z M 73 20 " clip-rule="nonzero"/></clipPath><clipPath id="0195492872"><path d="M 78 20 L 83.496094 20 L 83.496094 25.3125 L 78 25.3125 Z M 78 20 " clip-rule="nonzero"/></clipPath></defs><g clip-path="url(#5ecde0390c)"><path fill="#3c096c" d="M 62.355469 4.171875 L 67.117188 4.171875 L 67.117188 8.933594 L 62.355469 8.933594 Z M 62.355469 4.171875 " fill-opacity="1" fill-rule="nonzero"/></g><g clip-path="url(#7d6f35e9b6)"><path fill="#3c096c" d="M 62.355469 9.628906 L 67.117188 9.628906 L 67.117188 14.394531 L 62.355469 14.394531 Z M 62.355469 9.628906 " fill-opacity="1" fill-rule="nonzero"/></g><g clip-path="url(#241987ce39)"><path fill="#3c096c" d="M 62.355469 15.089844 L 67.117188 15.089844 L 67.117188 19.851562 L 62.355469 19.851562 Z M 62.355469 15.089844 " fill-opacity="1" fill-rule="nonzero"/></g><g clip-path="url(#7d7b38b6d3)"><path fill="#3c096c" d="M 62.355469 20.550781 L 67.117188 20.550781 L 67.117188 25.3125 L 62.355469 25.3125 Z M 62.355469 20.550781 " fill-opacity="1" fill-rule="nonzero"/></g><path fill="#5a189a" d="M 67.8125 9.628906 L 72.578125 9.628906 L 72.578125 14.394531 L 67.8125 14.394531 Z M 67.8125 9.628906 " fill-opacity="1" fill-rule="nonzero"/><path fill="#5a189a" d="M 67.8125 15.089844 L 72.578125 15.089844 L 72.578125 19.851562 L 67.8125 19.851562 Z M 67.8125 15.089844 " fill-opacity="1" fill-rule="nonzero"/><g clip-path="url(#6c029ebe5e)"><path fill="#5a189a" d="M 67.8125 20.550781 L 72.578125 20.550781 L 72.578125 25.3125 L 67.8125 25.3125 Z M 67.8125 20.550781 " fill-opacity="1" fill-rule="nonzero"/></g><path fill="#7b2cbf" d="M 73.273438 15.089844 L 78.035156 15.089844 L 78.035156 19.851562 L 73.273438 19.851562 Z M 73.273438 15.089844 " fill-opacity="1" fill-rule="nonzero"/><g clip-path="url(#6fc3a6c8b6)"><path fill="#7b2cbf" d="M 73.273438 20.550781 L 78.035156 20.550781 L 78.035156 25.3125 L 73.273438 25.3125 Z M 73.273438 20.550781 " fill-opacity="1" fill-rule="nonzero"/></g><g clip-path="url(#0195492872)"><path fill="#9d4edd" d="M 78.734375 20.550781 L 83.496094 20.550781 L 83.496094 25.3125 L 78.734375 25.3125 Z M 78.734375 20.550781 " fill-opacity="1" fill-rule="nonzero"/></g><g fill="#3c096c" fill-opacity="1"><g transform="translate(6.072075, 12.837726)"><g><path d="M 0.765625 -8.8125 L 3.0625 -8.8125 L 5.484375 -2.890625 L 5.59375 -2.890625 L 8.015625 -8.8125 L 10.3125 -8.8125 L 10.3125 0 L 8.5 0 L 8.5 -5.734375 L 8.4375 -5.734375 L 6.15625 -0.046875 L 4.921875 -0.046875 L 2.640625 -5.75 L 2.578125 -5.75 L 2.578125 0 L 0.765625 0 Z M 0.765625 -8.8125 "/></g></g></g><g fill="#3c096c" fill-opacity="1"><g transform="translate(17.250287, 12.837726)"><g><path d="M 8.859375 -4.40625 C 8.859375 -3.445312 8.675781 -2.628906 8.3125 -1.953125 C 7.945312 -1.273438 7.453125 -0.757812 6.828125 -0.40625 C 6.210938 -0.0507812 5.515625 0.125 4.734375 0.125 C 3.953125 0.125 3.25 -0.0507812 2.625 -0.40625 C 2 -0.769531 1.503906 -1.285156 1.140625 -1.953125 C 0.785156 -2.628906 0.609375 -3.445312 0.609375 -4.40625 C 0.609375 -5.363281 0.785156 -6.175781 1.140625 -6.84375 C 1.503906 -7.519531 2 -8.035156 2.625 -8.390625 C 3.25 -8.742188 3.953125 -8.921875 4.734375 -8.921875 C 5.515625 -8.921875 6.210938 -8.742188 6.828125 -8.390625 C 7.453125 -8.035156 7.945312 -7.519531 8.3125 -6.84375 C 8.675781 -6.175781 8.859375 -5.363281 8.859375 -4.40625 Z M 6.96875 -4.40625 C 6.96875 -5.34375 6.765625 -6.054688 6.359375 -6.546875 C 5.953125 -7.035156 5.410156 -7.28125 4.734375 -7.28125 C 4.054688 -7.28125 3.515625 -7.035156 3.109375 -6.546875 C 2.703125 -6.054688 2.5 -5.34375 2.5 -4.40625 C 2.5 -3.46875 2.703125 -2.753906 3.109375 -2.265625 C 3.515625 -1.773438 4.054688 -1.53125 4.734375 -1.53125 C 5.410156 -1.53125 5.953125 -1.773438 6.359375 -2.265625 C 6.765625 -2.753906 6.96875 -3.46875 6.96875 -4.40625 Z M 6.96875 -4.40625 "/></g></g></g><g fill="#3c096c" fill-opacity="1"><g transform="translate(26.710096, 12.837726)"><g><path d="M 3.890625 0 L 0.765625 0 L 0.765625 -8.8125 L 3.90625 -8.8125 C 4.789062 -8.8125 5.550781 -8.632812 6.1875 -8.28125 C 6.832031 -7.925781 7.328125 -7.421875 7.671875 -6.765625 C 8.023438 -6.109375 8.203125 -5.320312 8.203125 -4.40625 C 8.203125 -3.488281 8.023438 -2.703125 7.671875 -2.046875 C 7.328125 -1.390625 6.832031 -0.882812 6.1875 -0.53125 C 5.550781 -0.175781 4.785156 0 3.890625 0 Z M 2.625 -1.59375 L 3.8125 -1.59375 C 4.632812 -1.59375 5.257812 -1.816406 5.6875 -2.265625 C 6.125 -2.710938 6.34375 -3.425781 6.34375 -4.40625 C 6.34375 -5.382812 6.125 -6.097656 5.6875 -6.546875 C 5.257812 -6.992188 4.632812 -7.21875 3.8125 -7.21875 L 2.625 -7.21875 Z M 2.625 -1.59375 "/></g></g></g><g fill="#3c096c" fill-opacity="1"><g transform="translate(35.508319, 12.837726)"><g><path d="M 0.765625 0 L 0.765625 -8.8125 L 6.703125 -8.8125 L 6.703125 -7.265625 L 2.625 -7.265625 L 2.625 -5.171875 L 6.390625 -5.171875 L 6.390625 -3.640625 L 2.625 -3.640625 L 2.625 -1.53125 L 6.71875 -1.53125 L 6.71875 0 Z M 0.765625 0 "/></g></g></g><g fill="#3c096c" fill-opacity="1"><g transform="translate(42.918927, 12.837726)"><g><path d="M 0.765625 0 L 0.765625 -8.8125 L 4.234375 -8.8125 C 5.234375 -8.8125 6.007812 -8.546875 6.5625 -8.015625 C 7.113281 -7.492188 7.390625 -6.800781 7.390625 -5.9375 C 7.390625 -5.332031 7.253906 -4.816406 6.984375 -4.390625 C 6.722656 -3.960938 6.34375 -3.640625 5.84375 -3.421875 L 7.703125 0 L 5.65625 0 L 3.984375 -3.125 L 2.625 -3.125 L 2.625 0 Z M 2.625 -4.625 L 3.890625 -4.625 C 4.953125 -4.625 5.484375 -5.0625 5.484375 -5.9375 C 5.484375 -6.832031 4.953125 -7.28125 3.890625 -7.28125 L 2.625 -7.28125 Z M 2.625 -4.625 "/></g></g></g><g fill="#3c096c" fill-opacity="1"><g transform="translate(50.857954, 12.837726)"><g><path d="M 8.125 -8.8125 L 8.125 0 L 6.515625 0 L 2.6875 -5.546875 L 2.625 -5.546875 L 2.625 0 L 0.765625 0 L 0.765625 -8.8125 L 2.40625 -8.8125 L 6.203125 -3.265625 L 6.28125 -3.265625 L 6.28125 -8.8125 Z M 8.125 -8.8125 "/></g></g></g><g fill="#3c096c" fill-opacity="1"><g transform="translate(14.752115, 24.342921)"><g><path d="M 0.765625 0 L 0.765625 -8.8125 L 2.625 -8.8125 L 2.625 -5.171875 L 6.40625 -5.171875 L 6.40625 -8.8125 L 8.265625 -8.8125 L 8.265625 0 L 6.40625 0 L 6.40625 -3.640625 L 2.625 -3.640625 L 2.625 0 Z M 0.765625 0 "/></g></g></g><g fill="#3c096c" fill-opacity="1"><g transform="translate(23.778027, 24.342921)"><g><path d="M 8.859375 -4.40625 C 8.859375 -3.445312 8.675781 -2.628906 8.3125 -1.953125 C 7.945312 -1.273438 7.453125 -0.757812 6.828125 -0.40625 C 6.210938 -0.0507812 5.515625 0.125 4.734375 0.125 C 3.953125 0.125 3.25 -0.0507812 2.625 -0.40625 C 2 -0.769531 1.503906 -1.285156 1.140625 -1.953125 C 0.785156 -2.628906 0.609375 -3.445312 0.609375 -4.40625 C 0.609375 -5.363281 0.785156 -6.175781 1.140625 -6.84375 C 1.503906 -7.519531 2 -8.035156 2.625 -8.390625 C 3.25 -8.742188 3.953125 -8.921875 4.734375 -8.921875 C 5.515625 -8.921875 6.210938 -8.742188 6.828125 -8.390625 C 7.453125 -8.035156 7.945312 -7.519531 8.3125 -6.84375 C 8.675781 -6.175781 8.859375 -5.363281 8.859375 -4.40625 Z M 6.96875 -4.40625 C 6.96875 -5.34375 6.765625 -6.054688 6.359375 -6.546875 C 5.953125 -7.035156 5.410156 -7.28125 4.734375 -7.28125 C 4.054688 -7.28125 3.515625 -7.035156 3.109375 -6.546875 C 2.703125 -6.054688 2.5 -5.34375 2.5 -4.40625 C 2.5 -3.46875 2.703125 -2.753906 3.109375 -2.265625 C 3.515625 -1.773438 4.054688 -1.53125 4.734375 -1.53125 C 5.410156 -1.53125 5.953125 -1.773438 6.359375 -2.265625 C 6.765625 -2.753906 6.96875 -3.46875 6.96875 -4.40625 Z M 6.96875 -4.40625 "/></g></g></g><g fill="#3c096c" fill-opacity="1"><g transform="translate(33.237836, 24.342921)"><g><path d="M 0.765625 -8.8125 L 3.0625 -8.8125 L 5.484375 -2.890625 L 5.59375 -2.890625 L 8.015625 -8.8125 L 10.3125 -8.8125 L 10.3125 0 L 8.5 0 L 8.5 -5.734375 L 8.4375 -5.734375 L 6.15625 -0.046875 L 4.921875 -0.046875 L 2.640625 -5.75 L 2.578125 -5.75 L 2.578125 0 L 0.765625 0 Z M 0.765625 -8.8125 "/></g></g></g><g fill="#3c096c" fill-opacity="1"><g transform="translate(44.416049, 24.342921)"><g><path d="M 0.765625 0 L 0.765625 -8.8125 L 6.703125 -8.8125 L 6.703125 -7.265625 L 2.625 -7.265625 L 2.625 -5.171875 L 6.390625 -5.171875 L 6.390625 -3.640625 L 2.625 -3.640625 L 2.625 -1.53125 L 6.71875 -1.53125 L 6.71875 0 Z M 0.765625 0 "/></g></g></g><g fill="#3c096c" fill-opacity="1"><g transform="translate(51.826656, 24.342921)"><g><path d="M 5.546875 -6.28125 C 5.503906 -6.625 5.351562 -6.890625 5.09375 -7.078125 C 4.832031 -7.273438 4.476562 -7.375 4.03125 -7.375 C 3.582031 -7.375 3.234375 -7.28125 2.984375 -7.09375 C 2.742188 -6.90625 2.625 -6.671875 2.625 -6.390625 C 2.613281 -6.066406 2.742188 -5.820312 3.015625 -5.65625 C 3.296875 -5.5 3.628906 -5.378906 4.015625 -5.296875 L 4.8125 -5.109375 C 5.320312 -4.992188 5.773438 -4.828125 6.171875 -4.609375 C 6.566406 -4.390625 6.878906 -4.109375 7.109375 -3.765625 C 7.335938 -3.421875 7.453125 -3.003906 7.453125 -2.515625 C 7.441406 -1.710938 7.132812 -1.070312 6.53125 -0.59375 C 5.9375 -0.113281 5.101562 0.125 4.03125 0.125 C 2.957031 0.125 2.101562 -0.117188 1.46875 -0.609375 C 0.832031 -1.097656 0.503906 -1.816406 0.484375 -2.765625 L 2.28125 -2.765625 C 2.3125 -2.328125 2.484375 -1.992188 2.796875 -1.765625 C 3.117188 -1.546875 3.519531 -1.4375 4 -1.4375 C 4.476562 -1.4375 4.859375 -1.535156 5.140625 -1.734375 C 5.421875 -1.929688 5.5625 -2.191406 5.5625 -2.515625 C 5.5625 -2.816406 5.429688 -3.046875 5.171875 -3.203125 C 4.921875 -3.367188 4.554688 -3.507812 4.078125 -3.625 L 3.109375 -3.859375 C 2.367188 -4.035156 1.78125 -4.316406 1.34375 -4.703125 C 0.914062 -5.097656 0.707031 -5.617188 0.71875 -6.265625 C 0.707031 -6.796875 0.847656 -7.257812 1.140625 -7.65625 C 1.429688 -8.0625 1.828125 -8.375 2.328125 -8.59375 C 2.835938 -8.8125 3.410156 -8.921875 4.046875 -8.921875 C 4.703125 -8.921875 5.273438 -8.804688 5.765625 -8.578125 C 6.253906 -8.359375 6.632812 -8.050781 6.90625 -7.65625 C 7.175781 -7.257812 7.316406 -6.800781 7.328125 -6.28125 Z M 5.546875 -6.28125 "/></g></g></g></svg>